<?xml version="1.0" encoding="UTF-8" standalone="no"?>
<svg
   xmlns:dc="http://purl.org/dc/elements/1.1/"
   xmlns:cc="http://creativecommons.org/ns#"
   xmlns:rdf="http://www.w3.org/1999/02/22-rdf-syntax-ns#"
   xmlns:svg="http://www.w3.org/2000/svg"
   xmlns="http://www.w3.org/2000/svg"
   xmlns:xlink="http://www.w3.org/1999/xlink"
   xmlns:sodipodi="http://sodipodi.sourceforge.net/DTD/sodipodi-0.dtd"
   xmlns:inkscape="http://www.inkscape.org/namespaces/inkscape"
   sodipodi:docname="Modelado_nivel_elemental.svg"
   inkscape:version="1.0 (4035a4fb49, 2020-05-01)"
   id="svg1563"
   version="1.1"
   viewBox="0 0 45 45"
   height="45mm"
   width="45mm">
  <defs
     id="defs1557">
    <marker
       inkscape:stockid="Arrow1Mend"
       orient="auto"
       refY="0.0"
       refX="0.0"
       id="marker2074"
       style="overflow:visible;"
       inkscape:isstock="true">
      <path
         id="path2072"
         d="M 0.0,0.0 L 5.0,-5.0 L -12.5,0.0 L 5.0,5.0 L 0.0,0.0 z "
         style="fill-rule:evenodd;stroke:#000000;stroke-width:1pt;stroke-opacity:1;fill:#000000;fill-opacity:1"
         transform="scale(0.4) rotate(180) translate(10,0)" />
    </marker>
    <marker
       inkscape:stockid="StopL"
       orient="auto"
       refY="0.0"
       refX="0.0"
       id="marker2004"
       style="overflow:visible"
       inkscape:isstock="true">
      <path
         id="path2002"
         d="M 0.0,5.65 L 0.0,-5.65"
         style="fill:none;fill-opacity:0.75;fill-rule:evenodd;stroke:#000000;stroke-width:1pt;stroke-opacity:1"
         transform="scale(0.8)" />
    </marker>
    <marker
       inkscape:stockid="Arrow1Mend"
       orient="auto"
       refY="0.0"
       refX="0.0"
       id="marker1824"
       style="overflow:visible;"
       inkscape:isstock="true">
      <path
         id="path1822"
         d="M 0.0,0.0 L 5.0,-5.0 L -12.5,0.0 L 5.0,5.0 L 0.0,0.0 z "
         style="fill-rule:evenodd;stroke:#000000;stroke-width:1pt;stroke-opacity:1;fill:#000000;fill-opacity:1"
         transform="scale(0.4) rotate(180) translate(10,0)" />
    </marker>
    <marker
       inkscape:stockid="StopL"
       orient="auto"
       refY="0.0"
       refX="0.0"
       id="marker1766"
       style="overflow:visible"
       inkscape:isstock="true">
      <path
         id="path1764"
         d="M 0.0,5.65 L 0.0,-5.65"
         style="fill:none;fill-opacity:0.75;fill-rule:evenodd;stroke:#000000;stroke-width:1pt;stroke-opacity:1"
         transform="scale(0.8)" />
    </marker>
    <marker
       inkscape:collect="always"
       inkscape:isstock="true"
       style="overflow:visible"
       id="StopL"
       refX="0.0"
       refY="0.0"
       orient="auto"
       inkscape:stockid="StopL">
      <path
         transform="scale(0.8)"
         style="fill:none;fill-opacity:0.75;fill-rule:evenodd;stroke:#000000;stroke-width:1pt;stroke-opacity:1"
         d="M 0.0,5.65 L 0.0,-5.65"
         id="path1230" />
    </marker>
    <marker
       inkscape:collect="always"
       inkscape:isstock="true"
       style="overflow:visible;"
       id="marker1368"
       refX="0.0"
       refY="0.0"
       orient="auto"
       inkscape:stockid="Arrow1Mend">
      <path
         transform="scale(0.4) rotate(180) translate(10,0)"
         style="fill-rule:evenodd;stroke:#000000;stroke-width:1pt;stroke-opacity:1;fill:#000000;fill-opacity:1"
         d="M 0.0,0.0 L 5.0,-5.0 L -12.5,0.0 L 5.0,5.0 L 0.0,0.0 z "
         id="path1070" />
    </marker>
    <marker
       inkscape:isstock="true"
       style="overflow:visible;"
       id="Arrow2Lend"
       refX="0.0"
       refY="0.0"
       orient="auto"
       inkscape:stockid="Arrow2Lend">
      <path
         transform="scale(1.1) rotate(180) translate(1,0)"
         d="M 8.7185878,4.0337352 L -2.2072895,0.016013256 L 8.7185884,-4.0017078 C 6.9730900,-1.6296469 6.9831476,1.6157441 8.7185878,4.0337352 z "
         style="fill-rule:evenodd;stroke-width:0.625;stroke-linejoin:round;stroke:#000000;stroke-opacity:1;fill:#000000;fill-opacity:1"
         id="path1082" />
    </marker>
    <marker
       inkscape:stockid="DotM"
       orient="auto"
       refY="0.0"
       refX="0.0"
       id="marker4269"
       style="overflow:visible"
       inkscape:isstock="true">
      <path
         id="path4267"
         d="M -2.5,-1.0 C -2.5,1.7600000 -4.7400000,4.0 -7.5,4.0 C -10.260000,4.0 -12.5,1.7600000 -12.5,-1.0 C -12.5,-3.7600000 -10.260000,-6.0 -7.5,-6.0 C -4.7400000,-6.0 -2.5,-3.7600000 -2.5,-1.0 z "
         style="fill-rule:evenodd;stroke:#000000;stroke-width:1pt;stroke-opacity:1;fill:#000000;fill-opacity:1"
         transform="scale(0.4) translate(7.4, 1)" />
    </marker>
    <marker
       inkscape:stockid="Arrow1Mend"
       orient="auto"
       refY="0.0"
       refX="0.0"
       id="marker3537"
       style="overflow:visible;"
       inkscape:isstock="true">
      <path
         id="path3535"
         d="M 0.0,0.0 L 5.0,-5.0 L -12.5,0.0 L 5.0,5.0 L 0.0,0.0 z "
         style="fill-rule:evenodd;stroke:#000000;stroke-width:1pt;stroke-opacity:1;fill:#000000;fill-opacity:1"
         transform="scale(0.4) rotate(180) translate(10,0)" />
    </marker>
    <pattern
       patternTransform="matrix(0.26458333,0,0,0.26458333,74.154022,270.16348)"
       id="pattern2858"
       xlink:href="#pattern2135"
       inkscape:collect="always" />
    <pattern
       id="pattern2135"
       patternTransform="matrix(0.26458333,0,0,0.26458333,-6.5177076,240.90601)"
       height="124.4508"
       width="124.45079"
       patternUnits="userSpaceOnUse">
      <path
         inkscape:connector-curvature="0"
         id="path2133"
         d="M 0.35355339,124.09725 124.09724,0.35355335"
         style="fill:none;stroke:#000000;stroke-width:0.99999994px;stroke-linecap:butt;stroke-linejoin:miter;stroke-opacity:1" />
    </pattern>
  </defs>
  <sodipodi:namedview
     inkscape:snap-smooth-nodes="true"
     inkscape:object-paths="true"
     inkscape:snap-intersection-paths="true"
     inkscape:snap-global="true"
     inkscape:document-rotation="0"
     inkscape:window-maximized="1"
     inkscape:window-y="-8"
     inkscape:window-x="-8"
     inkscape:window-height="1017"
     inkscape:window-width="1920"
     showgrid="false"
     inkscape:current-layer="layer1"
     inkscape:document-units="mm"
     inkscape:cy="86.903702"
     inkscape:cx="68.661055"
     inkscape:zoom="3.959798"
     inkscape:pageshadow="2"
     inkscape:pageopacity="0.0"
     borderopacity="1.0"
     bordercolor="#666666"
     pagecolor="#ffffff"
     id="base" />
  <metadata
     id="metadata1560">
    <rdf:RDF>
      <cc:Work
         rdf:about="">
        <dc:format>image/svg+xml</dc:format>
        <dc:type
           rdf:resource="http://purl.org/dc/dcmitype/StillImage" />
        <dc:title />
      </cc:Work>
    </rdf:RDF>
  </metadata>
  <g
     transform="translate(0,-252)"
     id="layer1"
     inkscape:groupmode="layer"
     inkscape:label="Layer 1">
    <path
       id="path941"
       style="opacity:1;fill:#b3b3b3;fill-opacity:1;stroke:none;stroke-width:0.265;stroke-linecap:square;stroke-linejoin:round;stroke-miterlimit:4;stroke-dasharray:none;stroke-dashoffset:0;stroke-opacity:1;paint-order:stroke markers fill"
       d="m 28.991758,275.06516 a 10.449089,2.7624862 0 0 1 -10.449089,2.76248 10.449089,2.7624862 0 0 1 -10.4490888,-2.76248 10.449089,2.7624862 0 0 1 10.4490888,-2.76249 10.449089,2.7624862 0 0 1 10.449089,2.76249" />
    <path
       transform="matrix(0.26458333,0,0,0.26458333,0,252)"
       d="M 30.589844 87.175781 L 30.589844 135.74805 L 30.589844 135.97461 L 30.599609 135.97461 A 39.49262 10.440893 0 0 0 50.335938 144.79102 A 39.49262 10.440893 0 0 0 89.828125 144.79102 A 39.49262 10.440893 0 0 0 109.56445 135.97461 L 109.57422 135.97461 L 109.57422 135.74805 L 109.57422 87.175781 A 39.49262 10.440893 0 0 1 89.828125 96.216797 A 39.49262 10.440893 0 0 1 50.335938 96.216797 A 39.49262 10.440893 0 0 1 30.589844 87.175781 z "
       style="opacity:1;fill:#b3b3b3;fill-opacity:1;stroke:none;stroke-width:1.00157;stroke-linecap:square;stroke-linejoin:round;stroke-miterlimit:4;stroke-dasharray:none;stroke-dashoffset:0;stroke-opacity:1;paint-order:stroke markers fill"
       id="ellipse929" />
    <text
       xml:space="preserve"
       style="font-style:italic;font-variant:normal;font-weight:normal;font-stretch:normal;font-size:3.52777767px;line-height:1.25;font-family:'Latin Modern Roman';-inkscape-font-specification:'Latin Modern Roman,  Italic';letter-spacing:0px;word-spacing:0px;fill:#000000;fill-opacity:1;stroke:none;stroke-width:0.26458332;"
       x="14.945705"
       y="258.30453"
       id="text60"><tspan
         sodipodi:role="line"
         id="tspan58"
         x="14.945705"
         y="258.30453"
         style="font-style:italic;font-variant:normal;font-weight:normal;font-stretch:normal;font-family:'Latin Modern Roman';-inkscape-font-specification:'Latin Modern Roman,  Italic';stroke-width:0.26458332;">P<tspan
   style="font-size:2.82222223px;baseline-shift:sub;-inkscape-font-specification:'Latin Modern Roman,  Italic';font-family:'Latin Modern Roman';font-weight:normal;font-style:italic;font-stretch:normal;font-variant:normal;"
   id="tspan56">atm</tspan></tspan></text>
    <ellipse
       ry="2.7624862"
       rx="10.449089"
       cy="264.0152"
       cx="18.542669"
       id="path62"
       style="opacity:1;fill:none;fill-opacity:1;stroke:#000000;stroke-width:0.265;stroke-linecap:square;stroke-linejoin:round;stroke-miterlimit:4;stroke-dasharray:none;stroke-dashoffset:0;stroke-opacity:1;paint-order:stroke markers fill" />
    <path
       sodipodi:nodetypes="ccscc"
       inkscape:connector-curvature="0"
       id="path898"
       d="m 8.0935801,264.01518 -5e-7,23.96158 c -1.7e-6,1.46563 4.6782144,2.70244 10.4490884,2.70244 5.770873,0 10.449091,-1.23681 10.44909,-2.70244 l -1e-6,-23.96158"
       style="fill:none;stroke:#000000;stroke-width:0.26458332px;stroke-linecap:butt;stroke-linejoin:miter;stroke-opacity:1" />
    <path
       inkscape:connector-curvature="0"
       id="path1046"
       d="m 27.657445,286.6168 c -0.01213,-0.0151 -0.0684,-0.1554 -0.125064,-0.3119 -0.184361,-0.50917 -0.184514,-0.91859 -4.91e-4,-1.42613 0.05588,-0.15417 0.11197,-0.29279 0.124626,-0.30804 0.01843,-0.0222 0.845333,-0.0277 4.148265,-0.0277 3.920137,0 4.12448,0.002 4.109718,0.0383 -0.130057,0.32073 -0.173778,0.5763 -0.173168,1.01228 4.91e-4,0.39549 0.03671,0.64254 0.130522,0.89178 0.02942,0.0782 0.05349,0.14588 0.05349,0.15046 0,0.005 -1.855308,0.008 -4.122908,0.008 -3.271982,0 -4.127461,-0.005 -4.144956,-0.0273 z"
       style="opacity:1;fill:#b3b3b3;fill-opacity:1;stroke:#000000;stroke-width:0;stroke-linecap:square;stroke-linejoin:round;stroke-miterlimit:4;stroke-dasharray:none;stroke-dashoffset:0;stroke-opacity:1;paint-order:stroke markers fill" />
    <path
       d="m 28.991758,275.06516 a 10.449089,2.7624862 0 0 1 -10.449089,2.76248 10.449089,2.7624862 0 0 1 -10.4490888,-2.76248 10.449089,2.7624862 0 0 1 10.4490888,-2.76249 10.449089,2.7624862 0 0 1 10.449089,2.76249"
       style="opacity:1;fill:none;fill-opacity:1;stroke:#000000;stroke-width:0.265;stroke-linecap:square;stroke-linejoin:round;stroke-miterlimit:4;stroke-dasharray:none;stroke-dashoffset:0;stroke-opacity:1;paint-order:stroke markers fill"
       id="ellipse1020" />
    <g
       style="stroke-width:1.11263752"
       transform="matrix(0.89875166,0,0,0.89877893,1.0074168,27.80482)"
       id="g1055">
      <path
         style="opacity:1;fill:#b3b3b3;fill-opacity:1;stroke:#000000;stroke-width:0;stroke-linecap:square;stroke-linejoin:round;stroke-miterlimit:4;stroke-dasharray:none;stroke-dashoffset:0;stroke-opacity:1;paint-order:stroke markers fill"
         d="m 39.016212,287.96192 c -0.155893,-0.18527 -0.249789,-0.59856 -0.252853,-1.11295 -0.0031,-0.51494 0.07162,-0.90107 0.217834,-1.12621 0.07839,-0.1207 0.119935,-0.12935 0.198573,-0.0413 0.15636,0.175 0.249902,0.60851 0.24856,1.1519 -8.5e-4,0.38156 -0.03735,0.6461 -0.12172,0.88431 -0.05185,0.14642 -0.163061,0.31975 -0.205146,0.31975 -0.01195,0 -0.05032,-0.034 -0.08525,-0.0755 z"
         id="path1048"
         inkscape:connector-curvature="0" />
      <path
         style="opacity:1;fill:none;fill-opacity:1;stroke:#000000;stroke-width:0.29484892;stroke-linecap:square;stroke-linejoin:round;stroke-miterlimit:4;stroke-dasharray:none;stroke-dashoffset:0;stroke-opacity:1;paint-order:stroke markers fill"
         d="m 39.096889,288.09789 a 0.46436301,1.2767847 0 0 1 -0.464363,-1.27678 0.46436301,1.2767847 0 0 1 0.464363,-1.27679 0.46436301,1.2767847 0 0 1 0.464363,1.27679 0.46436301,1.2767847 0 0 1 -0.464363,1.27678 z"
         id="ellipse1022"
         inkscape:connector-curvature="0" />
      <path
         style="opacity:1;fill:none;fill-opacity:1;stroke:#000000;stroke-width:0.29484892;stroke-linecap:square;stroke-linejoin:round;stroke-miterlimit:4;stroke-dasharray:none;stroke-dashoffset:0;stroke-opacity:1;paint-order:stroke markers fill"
         d="m 29.815751,288.09789 c -0.25646,0 -0.464362,-0.57163 -0.464363,-1.27678 m 0,0 c -1e-6,-0.70515 0.207902,-1.27679 0.464363,-1.27679"
         id="ellipse1024"
         inkscape:connector-curvature="0"
         sodipodi:nodetypes="cccc" />
      <path
         style="fill:none;stroke:#000000;stroke-width:0.29438534px;stroke-linecap:butt;stroke-linejoin:miter;stroke-opacity:1"
         d="m 29.81575,285.54432 h 9.269349"
         id="path1028"
         inkscape:connector-curvature="0" />
      <path
         inkscape:connector-curvature="0"
         id="path1030"
         d="M 29.815751,288.09789 H 39.0851"
         style="fill:none;stroke:#000000;stroke-width:0.29438534px;stroke-linecap:butt;stroke-linejoin:miter;stroke-opacity:1" />
    </g>
    <path
       inkscape:connector-curvature="0"
       id="path1059"
       d="M 5.622396,288.11332 V 275.54158"
       style="fill:none;stroke:#000000;stroke-width:0.26458332px;stroke-linecap:butt;stroke-linejoin:miter;stroke-opacity:1;marker-start:url(#StopL);marker-end:url(#marker1368)" />
    <text
       id="text1748"
       y="282.77515"
       x="1.3291856"
       style="font-style:italic;font-variant:normal;font-weight:normal;font-stretch:normal;font-size:3.52777767px;line-height:1.25;font-family:'Latin Modern Roman';-inkscape-font-specification:'Latin Modern Roman,  Italic';letter-spacing:0px;word-spacing:0px;fill:#000000;fill-opacity:1;stroke:none;stroke-width:0.26458332"
       xml:space="preserve"><tspan
         style="font-style:italic;font-variant:normal;font-weight:normal;font-stretch:normal;font-family:'Latin Modern Roman';-inkscape-font-specification:'Latin Modern Roman,  Italic';stroke-width:0.26458332"
         y="282.77515"
         x="1.3291856"
         id="tspan1746"
         sodipodi:role="line">h<tspan
   id="tspan1744"
   style="font-style:normal;font-variant:normal;font-weight:normal;font-stretch:normal;font-size:2.82222223px;font-family:'Latin Modern Roman';-inkscape-font-specification:'Latin Modern Roman, ';baseline-shift:sub">1</tspan></tspan></text>
    <path
       style="fill:none;stroke:#000000;stroke-width:0.26458332px;stroke-linecap:butt;stroke-linejoin:miter;stroke-opacity:1;marker-start:url(#marker2004);marker-end:url(#marker2074)"
       d="m 38.429434,288.09394 v -2.24982"
       id="path1994"
       inkscape:connector-curvature="0" />
    <text
       xml:space="preserve"
       style="font-style:italic;font-variant:normal;font-weight:normal;font-stretch:normal;font-size:3.52777767px;line-height:1.25;font-family:'Latin Modern Roman';-inkscape-font-specification:'Latin Modern Roman,  Italic';letter-spacing:0px;word-spacing:0px;fill:#000000;fill-opacity:1;stroke:none;stroke-width:0.26458332;"
       x="40.148758"
       y="287.61505"
       id="text2000"><tspan
         sodipodi:role="line"
         id="tspan1998"
         x="40.148758"
         y="287.61505"
         style="font-style:italic;font-variant:normal;font-weight:normal;font-stretch:normal;font-family:'Latin Modern Roman';-inkscape-font-specification:'Latin Modern Roman,  Italic';stroke-width:0.26458332;">h<tspan
   style="font-style:normal;font-variant:normal;font-weight:normal;font-stretch:normal;font-size:2.82222223px;font-family:'Latin Modern Roman';-inkscape-font-specification:'Latin Modern Roman, ';baseline-shift:sub"
   id="tspan1996">2</tspan></tspan></text>
  </g>
</svg>
